<?xml version="1.0" standalone="no"?>
<!DOCTYPE svg PUBLIC "-//W3C//DTD SVG 20010904//EN"
 "http://www.w3.org/TR/2001/REC-SVG-20010904/DTD/svg10.dtd">
<svg version="1.0" xmlns="http://www.w3.org/2000/svg"
 width="1200.000000pt" height="1200.000000pt" viewBox="0 0 1200.000000 1200.000000"
 preserveAspectRatio="xMidYMid meet">
<metadata>
Created by potrace 1.11, written by Peter Selinger 2001-2013
</metadata>
<g transform="translate(0.000000,1200.000000) scale(0.100000,-0.100000)"
fill="#000000" stroke="none">
<path d="M5729 11656 c-2 -2 -58 -7 -124 -10 -66 -3 -129 -8 -140 -10 -11 -2
-54 -7 -95 -11 -41 -4 -82 -9 -90 -10 -8 -1 -40 -6 -70 -10 -30 -4 -64 -9 -75
-11 -10 -2 -37 -6 -60 -10 -301 -44 -709 -152 -1030 -271 -66 -24 -129 -48
-140 -53 -11 -5 -51 -22 -90 -38 -154 -65 -187 -80 -370 -173 -259 -130 -592
-332 -740 -446 -16 -13 -35 -27 -40 -31 -87 -64 -171 -127 -175 -131 -3 -3
-27 -24 -55 -46 -27 -21 -52 -42 -55 -45 -3 -3 -30 -25 -60 -50 -118 -96 -418
-389 -547 -535 -255 -288 -491 -615 -672 -930 -25 -44 -51 -89 -58 -100 -20
-34 -223 -441 -223 -448 0 -3 -11 -30 -24 -59 -45 -97 -118 -291 -173 -458
-78 -238 -114 -374 -168 -635 -36 -180 -41 -206 -49 -270 -3 -22 -8 -56 -11
-75 -8 -54 -14 -100 -20 -160 -3 -30 -7 -68 -10 -85 -29 -199 -27 -854 5
-1125 5 -47 12 -107 15 -135 2 -27 7 -61 9 -75 3 -14 8 -45 11 -70 17 -125 96
-508 125 -605 5 -16 21 -70 36 -120 217 -747 596 -1456 1100 -2055 152 -181
401 -437 569 -586 50 -43 92 -81 95 -85 3 -3 39 -32 80 -64 41 -33 77 -63 80
-66 10 -12 276 -205 365 -265 356 -241 772 -452 1205 -612 156 -57 446 -148
536 -167 10 -2 66 -15 124 -29 58 -13 141 -32 185 -40 44 -8 89 -17 100 -20
11 -2 40 -7 65 -10 25 -3 56 -8 69 -11 13 -2 49 -7 80 -11 31 -3 63 -8 71 -9
8 -2 47 -6 85 -10 39 -4 81 -8 94 -10 172 -27 792 -27 1076 0 82 8 141 15 160
19 11 2 47 7 80 10 78 9 126 16 145 21 8 2 31 7 50 10 87 14 255 49 365 77 66
16 127 31 135 33 81 19 458 141 525 169 17 8 95 40 175 72 181 73 521 244 705
354 271 161 547 359 795 569 180 153 493 467 620 621 25 30 47 57 50 60 3 3
24 28 45 55 22 28 43 52 46 55 15 14 166 220 241 330 165 241 398 658 482 860
11 25 27 63 37 85 154 339 329 933 384 1310 4 22 8 51 10 65 2 14 9 63 15 110
6 47 13 101 15 120 5 36 9 78 22 255 17 223 8 742 -17 960 -5 44 -12 107 -15
140 -4 33 -8 67 -10 75 -3 8 -7 35 -10 60 -3 25 -7 56 -10 70 -3 14 -8 39 -11
55 -26 146 -50 258 -76 360 -16 66 -34 138 -39 159 -28 113 -164 516 -214 631
-156 359 -260 565 -408 805 -59 97 -193 301 -219 335 -5 6 -48 62 -96 126
-253 338 -590 693 -907 954 -33 28 -62 53 -65 56 -30 33 -467 344 -560 397
-19 11 -77 45 -127 76 -469 285 -1110 533 -1693 655 -80 16 -161 32 -180 35
-19 3 -46 8 -60 11 -14 3 -45 7 -70 10 -25 3 -52 7 -60 10 -8 2 -42 7 -75 10
-33 4 -73 8 -90 10 -16 2 -61 6 -100 10 -38 3 -95 8 -125 11 -67 7 -675 15
-681 10z m472 -2416 c120 -41 205 -108 288 -230 62 -90 112 -138 180 -174 94
-49 116 -89 66 -122 -34 -22 -92 -26 -152 -10 -45 12 -167 73 -202 102 -9 7
-38 31 -66 54 -63 52 -106 74 -178 93 -52 14 -150 15 -202 3 -68 -15 -135 -58
-135 -86 0 -24 23 -31 73 -24 23 3 51 7 62 9 40 5 136 -14 190 -39 33 -15 86
-54 134 -100 137 -131 243 -185 374 -192 112 -5 198 30 292 119 41 39 71 50
98 36 30 -16 37 -28 37 -70 0 -83 -111 -228 -240 -314 -36 -23 -112 -66 -170
-95 -142 -71 -225 -128 -303 -208 -133 -138 -202 -286 -233 -497 -13 -89 -13
-450 0 -505 43 -188 81 -281 148 -367 85 -111 194 -165 342 -169 188 -5 328
88 422 281 71 147 99 294 98 525 -2 392 -90 601 -299 710 -38 19 -77 47 -88
61 -17 24 -18 30 -6 55 34 70 179 90 315 43 71 -25 184 -100 252 -168 112
-111 180 -232 222 -397 27 -103 34 -176 34 -329 -1 -110 -6 -164 -30 -285 -1
-8 -12 -46 -24 -85 -99 -315 -351 -540 -676 -601 -194 -36 -423 -19 -590 46
-204 78 -378 243 -469 443 -27 60 -71 205 -82 275 -10 62 -10 353 0 417 37
232 141 439 284 565 111 98 292 202 478 275 82 32 95 41 95 65 0 24 -22 31
-73 23 -67 -11 -203 -7 -255 7 -46 13 -179 78 -257 126 -160 98 -244 111 -394
59 -91 -31 -118 -31 -148 -3 -29 27 -30 69 -2 150 73 218 235 412 414 498 126
60 256 70 376 30z m-3942 -1134 c26 -24 28 -77 3 -99 -10 -9 -34 -19 -53 -23
-68 -11 -78 -14 -93 -30 -28 -28 -17 -79 70 -326 134 -380 198 -562 251 -710
37 -106 52 -138 66 -138 9 0 17 2 17 4 0 2 39 115 86 252 137 398 133 384 130
444 -3 52 -97 353 -133 423 -16 32 -68 67 -99 67 -35 0 -74 38 -74 71 0 42 15
65 47 76 16 5 164 9 330 9 289 -1 303 -2 322 -21 20 -21 24 -34 22 -72 -1 -26
-38 -48 -94 -57 -100 -16 -102 -41 -31 -262 26 -82 48 -154 50 -159 1 -6 27
-92 59 -190 95 -297 101 -315 140 -443 29 -92 43 -122 54 -120 11 2 35 67 77
208 251 834 267 895 246 926 -11 18 -49 34 -77 34 -39 0 -84 27 -91 55 -11 42
4 75 39 89 46 18 1062 16 1095 -2 45 -25 50 -99 9 -127 -12 -8 -40 -15 -63
-15 -26 0 -51 -7 -65 -19 l-23 -19 0 -263 c0 -145 3 -276 7 -291 5 -20 16 -30
39 -36 17 -4 139 -8 271 -7 238 1 239 1 258 24 18 21 19 44 19 295 0 260 -1
273 -20 294 -16 17 -33 22 -68 22 -54 1 -79 16 -91 56 -10 37 1 69 31 85 32
18 614 20 664 3 44 -15 44 -14 51 -57 8 -51 -29 -87 -90 -87 -57 0 -78 -17
-86 -71 -4 -24 -6 -352 -6 -728 l1 -684 23 -18 c15 -12 39 -19 66 -19 50 0 83
-23 90 -62 8 -43 -10 -76 -46 -86 -26 -6 -564 -9 -641 -3 -29 2 -58 38 -58 71
0 48 39 80 95 80 32 0 51 6 65 20 19 19 20 33 20 328 0 169 -4 312 -8 319 -4
6 -19 16 -33 22 -32 12 -485 12 -516 0 -12 -4 -26 -21 -30 -36 -4 -15 -7 -159
-7 -320 0 -271 1 -293 18 -312 14 -15 32 -21 65 -21 51 -1 76 -15 89 -50 13
-35 3 -69 -26 -88 -23 -15 -62 -17 -327 -18 -165 0 -313 3 -330 8 -56 15 -73
73 -34 122 17 21 29 26 68 26 26 0 56 6 67 14 18 14 19 35 22 703 2 378 0 703
-3 722 -18 96 -134 111 -183 22 -11 -20 -41 -103 -67 -186 -25 -82 -66 -215
-91 -295 -25 -80 -49 -156 -54 -170 -4 -14 -19 -63 -33 -110 -15 -47 -51 -164
-81 -260 -30 -96 -75 -242 -101 -325 -25 -82 -51 -164 -56 -181 -16 -51 -61
-112 -88 -120 -77 -22 -142 -4 -178 49 -12 18 -68 169 -123 337 -143 427 -151
448 -165 454 -8 3 -19 -11 -28 -37 -8 -23 -54 -152 -102 -287 -47 -135 -92
-261 -99 -280 -8 -19 -26 -67 -41 -107 -14 -40 -35 -83 -46 -97 -36 -46 -137
-55 -189 -17 -31 22 -55 71 -118 241 -28 74 -85 227 -128 340 -42 113 -89 239
-104 280 -61 167 -170 459 -193 520 -14 36 -42 108 -62 161 -20 53 -45 106
-56 118 -11 12 -47 29 -81 38 -71 20 -93 45 -83 93 12 53 30 56 384 55 299 0
320 -1 340 -19z m6059 0 c28 -14 32 -22 32 -55 0 -58 -24 -81 -90 -85 -30 -2
-61 -4 -68 -5 -35 -3 -37 -45 -37 -732 1 -514 4 -679 13 -696 26 -48 75 -57
301 -55 57 1 118 4 135 7 53 11 103 53 132 112 16 30 37 61 48 69 33 23 73 18
92 -12 20 -29 14 -86 -27 -271 -21 -95 27 -88 -620 -91 -622 -3 -619 -3 -633
54 -9 34 10 81 36 90 11 3 39 8 62 9 81 7 75 -45 76 760 0 818 8 755 -91 762
-71 4 -96 29 -90 93 5 59 42 65 391 64 265 -1 309 -3 338 -18z m1959 -2 c23
-18 31 -37 50 -125 31 -141 32 -188 4 -210 -24 -20 -66 -16 -92 7 -10 9 -27
38 -38 65 -21 48 -55 79 -95 87 -36 8 -460 6 -488 -1 -54 -14 -60 -47 -61
-291 0 -122 3 -235 7 -253 10 -44 35 -50 215 -48 172 2 166 0 186 80 8 30 19
44 43 56 40 20 68 15 89 -18 13 -20 17 -56 18 -181 1 -87 -1 -177 -6 -202 -8
-51 -36 -79 -74 -74 -28 3 -65 30 -65 48 0 6 -5 28 -10 48 -9 31 -17 39 -46
47 -42 11 -290 11 -321 0 -30 -11 -36 -51 -36 -258 1 -255 4 -323 19 -353 22
-43 69 -51 313 -51 267 0 311 14 366 121 15 29 37 59 48 67 34 24 74 19 94
-11 16 -25 16 -32 -6 -153 -28 -152 -41 -188 -77 -201 -39 -15 -1250 -13
-1278 2 -32 17 -44 39 -39 72 7 47 33 68 89 70 38 1 51 7 66 27 19 25 19 53
19 670 0 354 0 674 0 710 -1 87 -18 109 -86 115 -114 10 -130 135 -20 153 21
3 296 6 611 5 561 0 575 -1 601 -20z m-5687 -2139 c14 -3 39 -8 55 -10 17 -3
59 -15 95 -27 265 -86 455 -284 540 -567 20 -64 41 -94 56 -79 3 3 22 55 43
116 21 61 60 145 86 189 62 100 180 216 276 270 224 127 536 155 798 72 73
-23 155 -63 220 -107 103 -70 224 -216 272 -329 11 -26 24 -57 29 -68 36 -80
67 -276 65 -410 -2 -90 -12 -195 -21 -227 -3 -9 -7 -26 -9 -39 -37 -192 -161
-391 -315 -506 -167 -124 -345 -175 -585 -169 -141 4 -155 5 -256 31 -65 16
-185 71 -248 114 -145 97 -261 260 -321 451 -22 69 -32 86 -49 88 -11 2 -23
-3 -25 -10 -2 -7 -14 -44 -26 -83 -99 -312 -340 -524 -662 -582 -56 -10 -322
-10 -373 0 -234 46 -404 148 -534 320 -77 102 -151 284 -166 412 -4 33 -9 69
-11 80 -6 27 -5 199 1 259 50 517 409 835 925 820 63 -2 126 -6 140 -9z m3625
-13 c170 -37 289 -97 398 -201 136 -129 225 -313 253 -526 3 -22 7 -56 10 -75
7 -46 6 -213 -1 -270 -49 -388 -236 -645 -546 -750 -136 -47 -242 -58 -503
-55 -279 4 -341 8 -580 41 -82 11 -114 41 -101 92 11 46 34 62 84 62 54 0 66
7 79 41 13 34 13 1394 0 1428 -13 34 -25 41 -79 41 -51 0 -77 19 -85 65 -11
62 31 84 191 100 33 4 71 9 85 11 14 2 75 7 135 10 61 4 111 8 113 9 2 1 105
1 230 0 180 -3 246 -7 317 -23z m1455 15 c8 -4 32 -9 54 -12 21 -3 41 -7 45
-9 3 -2 23 -7 45 -10 30 -5 48 -1 84 19 24 14 54 25 66 25 31 0 60 -30 74 -76
18 -60 72 -314 72 -339 0 -43 -68 -77 -110 -55 -11 6 -39 36 -61 68 -56 76
-112 125 -184 161 -163 81 -331 50 -382 -71 -19 -43 -9 -142 18 -180 34 -50
110 -118 191 -173 40 -27 75 -52 78 -55 3 -4 28 -21 55 -40 183 -123 334 -259
387 -351 102 -173 95 -409 -15 -571 -57 -83 -157 -156 -263 -190 -97 -32 -143
-39 -259 -39 -82 1 -255 24 -277 37 -29 18 -72 14 -113 -10 -56 -33 -97 -34
-123 -2 -20 27 -102 331 -104 390 -2 50 33 86 81 86 45 0 47 -2 104 -76 111
-147 250 -224 404 -226 81 -1 107 4 167 31 111 49 164 164 131 286 -14 54 -71
129 -141 190 -38 33 -71 63 -74 66 -3 3 -84 61 -180 129 -254 179 -304 222
-372 318 -61 88 -88 223 -67 340 15 78 64 165 124 221 104 94 223 131 415 126
63 -2 122 -5 130 -8z m-6288 -27 c92 0 112 -19 132 -120 34 -170 36 -188 24
-212 -15 -30 -45 -40 -81 -29 -26 9 -39 24 -65 77 -48 97 -47 97 -388 98 -313
0 -321 -1 -340 -65 -6 -19 -10 -137 -9 -268 1 -228 1 -234 23 -251 19 -16 44
-18 231 -16 190 1 211 3 230 20 12 11 21 31 21 46 0 89 124 111 146 26 3 -12
4 -107 2 -210 -3 -185 -3 -188 -27 -207 -18 -15 -32 -18 -55 -13 -44 9 -53 19
-66 74 -6 27 -18 55 -26 61 -17 14 -407 21 -442 8 -11 -4 -24 -20 -29 -36 -7
-21 -11 -543 -4 -611 2 -27 40 -46 96 -47 62 -2 90 -20 98 -63 8 -40 -17 -78
-54 -86 -17 -3 -172 -6 -344 -6 -301 0 -313 1 -339 21 -19 15 -26 30 -26 54 0
52 26 75 90 79 97 8 89 -55 90 752 0 615 -2 708 -15 734 -9 17 -22 31 -30 31
-8 1 -28 3 -45 4 -16 1 -34 3 -40 4 -5 0 -18 11 -30 23 -27 29 -26 79 1 104
20 18 47 19 488 24 256 3 522 4 591 3 69 -1 155 -3 192 -3z m6892 -1724 c87
-36 111 -157 45 -229 -9 -10 -34 -25 -55 -32 -123 -42 -232 84 -171 198 38 69
108 94 181 63z m-6498 -745 c13 -1 24 -36 30 -96 4 -48 15 -150 20 -185 2 -14
6 -54 10 -90 3 -36 8 -73 10 -83 6 -31 17 -151 16 -171 -1 -25 -19 -36 -57
-36 -37 0 -58 13 -60 37 -2 19 -9 72 -25 183 -6 36 -12 79 -14 95 -2 17 -5 42
-5 58 -2 62 -43 28 -171 -145 -60 -81 -70 -77 -175 67 -42 58 -81 105 -86 105
-20 0 -27 -37 -64 -335 -7 -48 -12 -54 -57 -61 -54 -9 -72 15 -63 85 4 31 9
67 10 81 1 14 5 48 9 75 3 28 8 70 11 95 3 25 7 61 10 80 2 19 7 58 10 85 17
150 21 157 74 153 34 -3 42 -11 139 -148 61 -86 111 -146 122 -148 14 -2 45
32 125 140 116 155 128 168 153 163 9 -2 22 -4 28 -4z m832 -4 c20 -23 301
-630 296 -638 -9 -15 -75 -22 -99 -11 -14 6 -34 32 -46 59 -12 26 -28 52 -36
58 -19 14 -299 13 -313 -1 -6 -6 -21 -31 -34 -55 -13 -24 -36 -50 -51 -57 -32
-17 -95 -8 -95 13 0 8 29 74 64 147 35 73 100 210 145 303 45 94 89 176 98
183 22 16 58 16 71 -1z m1197 -6 c90 -37 145 -122 140 -215 -4 -68 -23 -104
-85 -156 -27 -23 -50 -46 -50 -52 0 -5 27 -48 60 -95 33 -48 60 -95 60 -105 0
-10 -1 -18 -2 -18 -108 -17 -122 -9 -183 91 -66 110 -76 116 -177 118 -46 0
-89 -3 -97 -8 -10 -6 -14 -33 -14 -100 0 -103 -5 -111 -72 -111 -27 0 -38 5
-43 20 -9 25 -8 621 1 636 9 16 423 11 462 -5z m728 1 c8 -7 11 -40 10 -99 -2
-129 2 -143 41 -143 40 0 57 12 186 129 57 53 113 104 124 113 26 23 64 19 87
-10 22 -29 14 -49 -38 -95 -122 -108 -183 -168 -183 -183 0 -8 21 -38 48 -67
26 -28 52 -56 57 -63 6 -6 44 -48 85 -93 41 -46 79 -90 84 -98 15 -27 -21 -45
-78 -40 -53 5 -34 -11 -221 189 -62 67 -96 88 -138 88 -47 0 -52 -12 -53 -134
-1 -127 -8 -146 -56 -146 -69 0 -66 -13 -66 322 0 167 2 311 4 320 3 9 13 19
22 21 24 7 71 0 85 -11z m1440 8 c10 -10 14 -66 6 -87 -8 -23 -10 -23 -223
-23 -242 0 -233 3 -230 -76 2 -75 -1 -73 140 -73 69 0 132 -5 138 -10 15 -12
19 -71 6 -91 -7 -11 -35 -14 -134 -15 -83 0 -129 -4 -137 -12 -15 -15 -18
-132 -3 -144 6 -5 107 -10 225 -11 l214 -3 3 -43 c2 -24 -1 -49 -7 -55 -14
-17 -533 -16 -553 1 -12 10 -14 63 -13 319 1 170 3 311 4 315 0 3 9 8 19 10
27 5 540 3 545 -2z m938 -11 c13 -20 11 -73 -3 -87 -8 -8 -47 -12 -109 -12
-64 0 -100 -4 -105 -12 -4 -6 -7 -125 -6 -265 1 -237 0 -254 -18 -263 -26 -14
-76 -12 -92 3 -10 11 -13 68 -12 263 0 146 -3 254 -9 262 -6 8 -41 12 -108 12
-90 0 -99 2 -110 21 -14 28 -3 87 18 91 9 2 135 3 281 2 217 0 265 -3 273 -15z"/>
<path d="M4317 5769 c-239 -55 -384 -336 -385 -744 0 -148 8 -228 34 -335 71
-294 273 -455 524 -417 192 28 341 203 394 461 59 286 30 585 -77 790 -61 118
-141 191 -262 237 -38 15 -178 20 -228 8z"/>
<path d="M6109 5767 c-187 -53 -313 -232 -363 -522 -14 -80 -16 -396 -2 -460
37 -176 99 -314 177 -392 51 -52 146 -106 204 -118 53 -10 169 -6 218 9 197
59 339 289 363 587 44 541 -145 899 -481 907 -38 1 -91 -4 -116 -11z"/>
<path d="M7900 5793 c-131 -18 -170 -41 -188 -107 -7 -25 -11 -251 -11 -665 0
-582 1 -628 18 -667 29 -64 106 -90 259 -86 242 5 405 178 468 495 9 45 17
147 19 227 8 305 -53 522 -186 664 -98 105 -241 157 -379 139z"/>
<path d="M10164 4190 c-32 -13 -56 -58 -57 -106 0 -35 5 -50 27 -73 35 -37 66
-45 117 -31 71 19 100 101 59 168 -29 47 -90 65 -146 42z m101 -30 c23 -19 19
-71 -5 -77 -20 -5 -20 -6 1 -40 12 -19 19 -37 16 -40 -7 -6 -67 57 -67 70 0 4
-4 5 -10 2 -5 -3 -10 -20 -10 -36 0 -20 -4 -29 -12 -26 -12 3 -22 123 -13 153
4 14 81 9 100 -6z"/>
<path d="M10190 4126 c0 -19 5 -24 28 -24 15 0 30 5 34 11 10 17 -11 37 -38
37 -19 0 -24 -5 -24 -24z"/>
<path d="M4510 3160 c-38 -77 -42 -92 -30 -100 18 -12 177 -13 184 -2 8 13
-82 192 -97 192 -7 0 -33 -41 -57 -90z"/>
<path d="M5533 3362 c-77 -4 -80 -9 -78 -116 1 -63 5 -81 19 -92 25 -18 259
-13 298 6 67 32 70 146 5 182 -25 14 -154 24 -244 20z"/>
</g>
</svg>
